ply
format ascii 1.0
element vertex 336
property float x
property float y
property float z
property uchar red
property uchar green
property uchar blue
element face 0
end_header
0.39597979187965393 0.39597979187965393 0.30240362882614136 128 128 128
0.5600000023841858 0.0 0.30240362882614136 128 128 128
0.9238795042037964 0.3826834261417389 0.0 128 128 128
3.429011054889572e-17 0.5600000023841858 0.30240362882614136 128 128 128
0.39597979187965393 0.39597979187965393 0.30240362882614136 128 128 128
0.3826834261417389 0.9238795042037964 0.0 128 128 128
-0.39597979187965393 0.39597979187965393 0.30240362882614136 128 128 128
3.429011054889572e-17 0.5600000023841858 0.30240362882614136 128 128 128
-0.3826834261417389 0.9238795042037964 0.0 128 128 128
-0.5600000023841858 6.858022109779144e-17 0.30240362882614136 128 128 128
-0.39597979187965393 0.39597979187965393 0.30240362882614136 128 128 128
-0.9238795042037964 0.3826834261417389 0.0 128 128 128
-0.39597979187965393 -0.39597979187965393 0.30240362882614136 128 128 128
-0.5600000023841858 6.858022109779144e-17 0.30240362882614136 128 128 128
-0.9238795042037964 -0.3826834261417389 0.0 128 128 128
-1.0287033164668716e-16 -0.5600000023841858 0.30240362882614136 128 128 128
-0.39597979187965393 -0.39597979187965393 0.30240362882614136 128 128 128
-0.3826834261417389 -0.9238795042037964 0.0 128 128 128
0.39597979187965393 -0.39597979187965393 0.30240362882614136 128 128 128
-1.0287033164668716e-16 -0.5600000023841858 0.30240362882614136 128 128 128
0.3826834261417389 -0.9238795042037964 0.0 128 128 128
0.5600000023841858 0.0 0.30240362882614136 128 128 128
0.39597979187965393 -0.39597979187965393 0.30240362882614136 128 128 128
0.9238795042037964 -0.3826834261417389 0.0 128 128 128
0.5600000023841858 0.0 0.30240362882614136 128 128 128
0.9238795042037964 -0.3826834261417389 0.0 128 128 128
1.0 0.0 0.0 128 128 128
0.5600000023841858 0.0 0.30240362882614136 128 128 128
1.0 0.0 0.0 128 128 128
0.9238795042037964 0.3826834261417389 0.0 128 128 128
0.39597979187965393 0.39597979187965393 0.30240362882614136 128 128 128
0.9238795042037964 0.3826834261417389 0.0 128 128 128
0.7071067690849304 0.7071067690849304 0.0 128 128 128
0.39597979187965393 0.39597979187965393 0.30240362882614136 128 128 128
0.7071067690849304 0.7071067690849304 0.0 128 128 128
0.3826834261417389 0.9238795042037964 0.0 128 128 128
3.429011054889572e-17 0.5600000023841858 0.30240362882614136 128 128 128
0.3826834261417389 0.9238795042037964 0.0 128 128 128
6.123234262925839e-17 1.0 0.0 128 128 128
3.429011054889572e-17 0.5600000023841858 0.30240362882614136 128 128 128
6.123234262925839e-17 1.0 0.0 128 128 128
-0.3826834261417389 0.9238795042037964 0.0 128 128 128
-0.39597979187965393 0.39597979187965393 0.30240362882614136 128 128 128
-0.3826834261417389 0.9238795042037964 0.0 128 128 128
-0.7071067690849304 0.7071067690849304 0.0 128 128 128
-0.39597979187965393 0.39597979187965393 0.30240362882614136 128 128 128
-0.7071067690849304 0.7071067690849304 0.0 128 128 128
-0.9238795042037964 0.3826834261417389 0.0 128 128 128
-0.5600000023841858 6.858022109779144e-17 0.30240362882614136 128 128 128
-0.9238795042037964 0.3826834261417389 0.0 128 128 128
-1.0 1.2246468525851679e-16 0.0 128 128 128
-0.5600000023841858 6.858022109779144e-17 0.30240362882614136 128 128 128
-1.0 1.2246468525851679e-16 0.0 128 128 128
-0.9238795042037964 -0.3826834261417389 0.0 128 128 128
-0.39597979187965393 -0.39597979187965393 0.30240362882614136 128 128 128
-0.9238795042037964 -0.3826834261417389 0.0 128 128 128
-0.7071067690849304 -0.7071067690849304 0.0 128 128 128
-0.39597979187965393 -0.39597979187965393 0.30240362882614136 128 128 128
-0.7071067690849304 -0.7071067690849304 0.0 128 128 128
-0.3826834261417389 -0.9238795042037964 0.0 128 128 128
-1.0287033164668716e-16 -0.5600000023841858 0.30240362882614136 128 128 128
-0.3826834261417389 -0.9238795042037964 0.0 128 128 128
-1.8369701465288538e-16 -1.0 0.0 128 128 128
-1.0287033164668716e-16 -0.5600000023841858 0.30240362882614136 128 128 128
-1.8369701465288538e-16 -1.0 0.0 128 128 128
0.3826834261417389 -0.9238795042037964 0.0 128 128 128
0.39597979187965393 -0.39597979187965393 0.30240362882614136 128 128 128
0.3826834261417389 -0.9238795042037964 0.0 128 128 128
0.7071067690849304 -0.7071067690849304 0.0 128 128 128
0.39597979187965393 -0.39597979187965393 0.30240362882614136 128 128 128
0.7071067690849304 -0.7071067690849304 0.0 128 128 128
0.9238795042037964 -0.3826834261417389 0.0 128 128 128
0.0 0.0 0.30240362882614136 128 128 128
0.5600000023841858 0.0 0.30240362882614136 128 128 128
0.39597979187965393 0.39597979187965393 0.30240362882614136 128 128 128
0.0 0.0 0.30240362882614136 128 128 128
0.39597979187965393 0.39597979187965393 0.30240362882614136 128 128 128
3.429011054889572e-17 0.5600000023841858 0.30240362882614136 128 128 128
0.0 0.0 0.30240362882614136 128 128 128
3.429011054889572e-17 0.5600000023841858 0.30240362882614136 128 128 128
-0.39597979187965393 0.39597979187965393 0.30240362882614136 128 128 128
0.0 0.0 0.30240362882614136 128 128 128
-0.39597979187965393 0.39597979187965393 0.30240362882614136 128 128 128
-0.5600000023841858 6.858022109779144e-17 0.30240362882614136 128 128 128
0.0 0.0 0.30240362882614136 128 128 128
-0.5600000023841858 6.858022109779144e-17 0.30240362882614136 128 128 128
-0.39597979187965393 -0.39597979187965393 0.30240362882614136 128 128 128
0.0 0.0 0.30240362882614136 128 128 128
-0.39597979187965393 -0.39597979187965393 0.30240362882614136 128 128 128
-1.0287033164668716e-16 -0.5600000023841858 0.30240362882614136 128 128 128
0.0 0.0 0.30240362882614136 128 128 128
-1.0287033164668716e-16 -0.5600000023841858 0.30240362882614136 128 128 128
0.39597979187965393 -0.39597979187965393 0.30240362882614136 128 128 128
0.0 0.0 0.30240362882614136 128 128 128
0.39597979187965393 -0.39597979187965393 0.30240362882614136 128 128 128
0.5600000023841858 0.0 0.30240362882614136 128 128 128
1.0 0.0 0.0 128 128 128
0.9238795042037964 -0.3826834261417389 0.0 128 128 128
0.0 0.0 -0.8616551160812378 128 128 128
1.0 0.0 0.0 128 128 128
0.0 0.0 -0.8616551160812378 128 128 128
0.9238795042037964 0.3826834261417389 0.0 128 128 128
0.9238795042037964 0.3826834261417389 0.0 128 128 128
0.0 0.0 -0.8616551160812378 128 128 128
0.7071067690849304 0.7071067690849304 0.0 128 128 128
0.7071067690849304 0.7071067690849304 0.0 128 128 128
0.9238795042037964 0.3826834261417389 0.0 128 128 128
0.0 0.0 -0.8616551160812378 128 128 128
0.7071067690849304 0.7071067690849304 0.0 128 128 128
0.0 0.0 -0.8616551160812378 128 128 128
0.3826834261417389 0.9238795042037964 0.0 128 128 128
0.3826834261417389 0.9238795042037964 0.0 128 128 128
0.0 0.0 -0.8616551160812378 128 128 128
6.123234262925839e-17 1.0 0.0 128 128 128
6.123234262925839e-17 1.0 0.0 128 128 128
0.3826834261417389 0.9238795042037964 0.0 128 128 128
0.0 0.0 -0.8616551160812378 128 128 128
6.123234262925839e-17 1.0 0.0 128 128 128
0.0 0.0 -0.8616551160812378 128 128 128
-0.3826834261417389 0.9238795042037964 0.0 128 128 128
-0.3826834261417389 0.9238795042037964 0.0 128 128 128
0.0 0.0 -0.8616551160812378 128 128 128
-0.7071067690849304 0.7071067690849304 0.0 128 128 128
-0.7071067690849304 0.7071067690849304 0.0 128 128 128
-0.3826834261417389 0.9238795042037964 0.0 128 128 128
0.0 0.0 -0.8616551160812378 128 128 128
-0.7071067690849304 0.7071067690849304 0.0 128 128 128
0.0 0.0 -0.8616551160812378 128 128 128
-0.9238795042037964 0.3826834261417389 0.0 128 128 128
-0.9238795042037964 0.3826834261417389 0.0 128 128 128
0.0 0.0 -0.8616551160812378 128 128 128
-1.0 1.2246468525851679e-16 0.0 128 128 128
-1.0 1.2246468525851679e-16 0.0 128 128 128
-0.9238795042037964 0.3826834261417389 0.0 128 128 128
0.0 0.0 -0.8616551160812378 128 128 128
-1.0 1.2246468525851679e-16 0.0 128 128 128
0.0 0.0 -0.8616551160812378 128 128 128
-0.9238795042037964 -0.3826834261417389 0.0 128 128 128
-0.9238795042037964 -0.3826834261417389 0.0 128 128 128
0.0 0.0 -0.8616551160812378 128 128 128
-0.7071067690849304 -0.7071067690849304 0.0 128 128 128
-0.7071067690849304 -0.7071067690849304 0.0 128 128 128
-0.9238795042037964 -0.3826834261417389 0.0 128 128 128
0.0 0.0 -0.8616551160812378 128 128 128
-0.7071067690849304 -0.7071067690849304 0.0 128 128 128
0.0 0.0 -0.8616551160812378 128 128 128
-0.3826834261417389 -0.9238795042037964 0.0 128 128 128
-0.3826834261417389 -0.9238795042037964 0.0 128 128 128
0.0 0.0 -0.8616551160812378 128 128 128
-1.8369701465288538e-16 -1.0 0.0 128 128 128
-1.8369701465288538e-16 -1.0 0.0 128 128 128
-0.3826834261417389 -0.9238795042037964 0.0 128 128 128
0.0 0.0 -0.8616551160812378 128 128 128
-1.8369701465288538e-16 -1.0 0.0 128 128 128
0.0 0.0 -0.8616551160812378 128 128 128
0.3826834261417389 -0.9238795042037964 0.0 128 128 128
0.3826834261417389 -0.9238795042037964 0.0 128 128 128
0.0 0.0 -0.8616551160812378 128 128 128
0.7071067690849304 -0.7071067690849304 0.0 128 128 128
0.7071067690849304 -0.7071067690849304 0.0 128 128 128
0.3826834261417389 -0.9238795042037964 0.0 128 128 128
0.0 0.0 -0.8616551160812378 128 128 128
0.7071067690849304 -0.7071067690849304 0.0 128 128 128
0.0 0.0 -0.8616551160812378 128 128 128
0.9238795042037964 -0.3826834261417389 0.0 128 128 128
0.9238795042037964 -0.3826834261417389 0.0 128 128 128
0.0 0.0 -0.8616551160812378 128 128 128
1.0 0.0 0.0 128 128 128
0.47798991203308105 0.19798989593982697 0.30240362882614136 255 0 0
0.7419397830963135 0.19134171307086945 0.15120181441307068 255 0 0
0.659929633140564 0.3893316090106964 0.15120181441307068 255 0 0
0.19798989593982697 0.47798991203308105 0.30240362882614136 255 0 0
0.3893316090106964 0.659929633140564 0.15120181441307068 255 0 0
0.19134171307086945 0.7419397830963135 0.15120181441307068 255 0 0
-0.19798989593982697 0.47798991203308105 0.30240362882614136 255 0 0
-0.19134171307086945 0.7419397830963135 0.15120181441307068 255 0 0
-0.3893316090106964 0.659929633140564 0.15120181441307068 255 0 0
-0.47798991203308105 0.19798989593982697 0.30240362882614136 255 0 0
-0.659929633140564 0.3893316090106964 0.15120181441307068 255 0 0
-0.7419397830963135 0.19134171307086945 0.15120181441307068 255 0 0
-0.47798991203308105 -0.19798989593982697 0.30240362882614136 255 0 0
-0.7419397830963135 -0.19134171307086945 0.15120181441307068 255 0 0
-0.659929633140564 -0.3893316090106964 0.15120181441307068 255 0 0
-0.19798989593982697 -0.47798991203308105 0.30240362882614136 255 0 0
-0.3893316090106964 -0.659929633140564 0.15120181441307068 255 0 0
-0.19134171307086945 -0.7419397830963135 0.15120181441307068 255 0 0
0.19798989593982697 -0.47798991203308105 0.30240362882614136 255 0 0
0.19134171307086945 -0.7419397830963135 0.15120181441307068 255 0 0
0.3893316090106964 -0.659929633140564 0.15120181441307068 255 0 0
0.47798991203308105 -0.19798989593982697 0.30240362882614136 255 0 0
0.659929633140564 -0.3893316090106964 0.15120181441307068 255 0 0
0.7419397830963135 -0.19134171307086945 0.15120181441307068 255 0 0
0.7419397830963135 -0.19134171307086945 0.15120181441307068 255 0 0
0.9619397521018982 -0.19134171307086945 0.0 255 0 0
0.7799999713897705 0.0 0.15120181441307068 255 0 0
0.7799999713897705 0.0 0.15120181441307068 255 0 0
0.9619397521018982 0.19134171307086945 0.0 255 0 0
0.7419397830963135 0.19134171307086945 0.15120181441307068 255 0 0
0.659929633140564 0.3893316090106964 0.15120181441307068 255 0 0
0.815493106842041 0.5448951125144958 0.0 255 0 0
0.5515432953834534 0.5515432953834534 0.15120181441307068 255 0 0
0.5515432953834534 0.5515432953834534 0.15120181441307068 255 0 0
0.5448951125144958 0.815493106842041 0.0 255 0 0
0.3893316090106964 0.659929633140564 0.15120181441307068 255 0 0
0.19134171307086945 0.7419397830963135 0.15120181441307068 255 0 0
0.19134171307086945 0.9619397521018982 0.0 255 0 0
4.7761226589077056e-17 0.7799999713897705 0.15120181441307068 255 0 0
4.7761226589077056e-17 0.7799999713897705 0.15120181441307068 255 0 0
-0.19134171307086945 0.9619397521018982 0.0 255 0 0
-0.19134171307086945 0.7419397830963135 0.15120181441307068 255 0 0
-0.3893316090106964 0.659929633140564 0.15120181441307068 255 0 0
-0.5448951125144958 0.815493106842041 0.0 255 0 0
-0.5515432953834534 0.5515432953834534 0.15120181441307068 255 0 0
-0.5515432953834534 0.5515432953834534 0.15120181441307068 255 0 0
-0.815493106842041 0.5448951125144958 0.0 255 0 0
-0.659929633140564 0.3893316090106964 0.15120181441307068 255 0 0
-0.7419397830963135 0.19134171307086945 0.15120181441307068 255 0 0
-0.9619397521018982 0.19134171307086945 0.0 255 0 0
-0.7799999713897705 9.552245317815411e-17 0.15120181441307068 255 0 0
-0.7799999713897705 9.552245317815411e-17 0.15120181441307068 255 0 0
-0.9619397521018982 -0.19134171307086945 0.0 255 0 0
-0.7419397830963135 -0.19134171307086945 0.15120181441307068 255 0 0
-0.659929633140564 -0.3893316090106964 0.15120181441307068 255 0 0
-0.815493106842041 -0.5448951125144958 0.0 255 0 0
-0.5515432953834534 -0.5515432953834534 0.15120181441307068 255 0 0
-0.5515432953834534 -0.5515432953834534 0.15120181441307068 255 0 0
-0.5448951125144958 -0.815493106842041 0.0 255 0 0
-0.3893316090106964 -0.659929633140564 0.15120181441307068 255 0 0
-0.19134171307086945 -0.7419397830963135 0.15120181441307068 255 0 0
-0.19134171307086945 -0.9619397521018982 0.0 255 0 0
-1.4328366984106382e-16 -0.7799999713897705 0.15120181441307068 255 0 0
-1.4328366984106382e-16 -0.7799999713897705 0.15120181441307068 255 0 0
0.19134171307086945 -0.9619397521018982 0.0 255 0 0
0.19134171307086945 -0.7419397830963135 0.15120181441307068 255 0 0
0.3893316090106964 -0.659929633140564 0.15120181441307068 255 0 0
0.5448951125144958 -0.815493106842041 0.0 255 0 0
0.5515432953834534 -0.5515432953834534 0.15120181441307068 255 0 0
0.5515432953834534 -0.5515432953834534 0.15120181441307068 255 0 0
0.815493106842041 -0.5448951125144958 0.0 255 0 0
0.659929633140564 -0.3893316090106964 0.15120181441307068 255 0 0
0.2800000011920929 0.0 0.30240362882614136 255 0 0
0.47798991203308105 0.19798989593982697 0.30240362882614136 255 0 0
0.19798989593982697 0.19798989593982697 0.30240362882614136 255 0 0
0.19798989593982697 0.19798989593982697 0.30240362882614136 255 0 0
0.19798989593982697 0.47798991203308105 0.30240362882614136 255 0 0
1.714505527444786e-17 0.2800000011920929 0.30240362882614136 255 0 0
1.714505527444786e-17 0.2800000011920929 0.30240362882614136 255 0 0
-0.19798989593982697 0.47798991203308105 0.30240362882614136 255 0 0
-0.19798989593982697 0.19798989593982697 0.30240362882614136 255 0 0
-0.19798989593982697 0.19798989593982697 0.30240362882614136 255 0 0
-0.47798991203308105 0.19798989593982697 0.30240362882614136 255 0 0
-0.2800000011920929 3.429011054889572e-17 0.30240362882614136 255 0 0
-0.2800000011920929 3.429011054889572e-17 0.30240362882614136 255 0 0
-0.47798991203308105 -0.19798989593982697 0.30240362882614136 255 0 0
-0.19798989593982697 -0.19798989593982697 0.30240362882614136 255 0 0
-0.19798989593982697 -0.19798989593982697 0.30240362882614136 255 0 0
-0.19798989593982697 -0.47798991203308105 0.30240362882614136 255 0 0
-5.143516582334358e-17 -0.2800000011920929 0.30240362882614136 255 0 0
-5.143516582334358e-17 -0.2800000011920929 0.30240362882614136 255 0 0
0.19798989593982697 -0.47798991203308105 0.30240362882614136 255 0 0
0.19798989593982697 -0.19798989593982697 0.30240362882614136 255 0 0
0.19798989593982697 -0.19798989593982697 0.30240362882614136 255 0 0
0.47798991203308105 -0.19798989593982697 0.30240362882614136 255 0 0
0.2800000011920929 0.0 0.30240362882614136 255 0 0
0.9619397521018982 -0.19134171307086945 0.0 255 0 0
0.4619397521018982 -0.19134171307086945 -0.4308275580406189 255 0 0
0.5 0.0 -0.4308275580406189 255 0 0
0.5 0.0 -0.4308275580406189 255 0 0
0.4619397521018982 0.19134171307086945 -0.4308275580406189 255 0 0
0.9619397521018982 0.19134171307086945 0.0 255 0 0
0.4619397521018982 0.19134171307086945 -0.4308275580406189 255 0 0
0.3535533845424652 0.3535533845424652 -0.4308275580406189 255 0 0
0.815493106842041 0.5448951125144958 0.0 255 0 0
0.815493106842041 0.5448951125144958 0.0 255 0 0
0.4619397521018982 0.19134171307086945 -0.4308275580406189 255 0 0
0.3535533845424652 0.3535533845424652 -0.4308275580406189 255 0 0
0.3535533845424652 0.3535533845424652 -0.4308275580406189 255 0 0
0.19134171307086945 0.4619397521018982 -0.4308275580406189 255 0 0
0.5448951125144958 0.815493106842041 0.0 255 0 0
0.19134171307086945 0.4619397521018982 -0.4308275580406189 255 0 0
3.0616171314629196e-17 0.5 -0.4308275580406189 255 0 0
0.19134171307086945 0.9619397521018982 0.0 255 0 0
0.19134171307086945 0.9619397521018982 0.0 255 0 0
0.19134171307086945 0.4619397521018982 -0.4308275580406189 255 0 0
3.0616171314629196e-17 0.5 -0.4308275580406189 255 0 0
3.0616171314629196e-17 0.5 -0.4308275580406189 255 0 0
-0.19134171307086945 0.4619397521018982 -0.4308275580406189 255 0 0
-0.19134171307086945 0.9619397521018982 0.0 255 0 0
-0.19134171307086945 0.4619397521018982 -0.4308275580406189 255 0 0
-0.3535533845424652 0.3535533845424652 -0.4308275580406189 255 0 0
-0.5448951125144958 0.815493106842041 0.0 255 0 0
-0.5448951125144958 0.815493106842041 0.0 255 0 0
-0.19134171307086945 0.4619397521018982 -0.4308275580406189 255 0 0
-0.3535533845424652 0.3535533845424652 -0.4308275580406189 255 0 0
-0.3535533845424652 0.3535533845424652 -0.4308275580406189 255 0 0
-0.4619397521018982 0.19134171307086945 -0.4308275580406189 255 0 0
-0.815493106842041 0.5448951125144958 0.0 255 0 0
-0.4619397521018982 0.19134171307086945 -0.4308275580406189 255 0 0
-0.5 6.123234262925839e-17 -0.4308275580406189 255 0 0
-0.9619397521018982 0.19134171307086945 0.0 255 0 0
-0.9619397521018982 0.19134171307086945 0.0 255 0 0
-0.4619397521018982 0.19134171307086945 -0.4308275580406189 255 0 0
-0.5 6.123234262925839e-17 -0.4308275580406189 255 0 0
-0.5 6.123234262925839e-17 -0.4308275580406189 255 0 0
-0.4619397521018982 -0.19134171307086945 -0.4308275580406189 255 0 0
-0.9619397521018982 -0.19134171307086945 0.0 255 0 0
-0.4619397521018982 -0.19134171307086945 -0.4308275580406189 255 0 0
-0.3535533845424652 -0.3535533845424652 -0.4308275580406189 255 0 0
-0.815493106842041 -0.5448951125144958 0.0 255 0 0
-0.815493106842041 -0.5448951125144958 0.0 255 0 0
-0.4619397521018982 -0.19134171307086945 -0.4308275580406189 255 0 0
-0.3535533845424652 -0.3535533845424652 -0.4308275580406189 255 0 0
-0.3535533845424652 -0.3535533845424652 -0.4308275580406189 255 0 0
-0.19134171307086945 -0.4619397521018982 -0.4308275580406189 255 0 0
-0.5448951125144958 -0.815493106842041 0.0 255 0 0
-0.19134171307086945 -0.4619397521018982 -0.4308275580406189 255 0 0
-9.184850732644269e-17 -0.5 -0.4308275580406189 255 0 0
-0.19134171307086945 -0.9619397521018982 0.0 255 0 0
-0.19134171307086945 -0.9619397521018982 0.0 255 0 0
-0.19134171307086945 -0.4619397521018982 -0.4308275580406189 255 0 0
-9.184850732644269e-17 -0.5 -0.4308275580406189 255 0 0
-9.184850732644269e-17 -0.5 -0.4308275580406189 255 0 0
0.19134171307086945 -0.4619397521018982 -0.4308275580406189 255 0 0
0.19134171307086945 -0.9619397521018982 0.0 255 0 0
0.19134171307086945 -0.4619397521018982 -0.4308275580406189 255 0 0
0.3535533845424652 -0.3535533845424652 -0.4308275580406189 255 0 0
0.5448951125144958 -0.815493106842041 0.0 255 0 0
0.5448951125144958 -0.815493106842041 0.0 255 0 0
0.19134171307086945 -0.4619397521018982 -0.4308275580406189 255 0 0
0.3535533845424652 -0.3535533845424652 -0.4308275580406189 255 0 0
0.3535533845424652 -0.3535533845424652 -0.4308275580406189 255 0 0
0.4619397521018982 -0.19134171307086945 -0.4308275580406189 255 0 0
0.815493106842041 -0.5448951125144958 0.0 255 0 0
0.4619397521018982 -0.19134171307086945 -0.4308275580406189 255 0 0
0.5 0.0 -0.4308275580406189 255 0 0
0.9619397521018982 -0.19134171307086945 0.0 255 0 0
